<svg width="57" height="38" viewBox="0 0 57 38" fill="none" xmlns="http://www.w3.org/2000/svg">
<g clip-path="url(#clip0_385_113)">
<path d="M51.6184 16.7617V18.5159H52.2493C52.9149 18.5159 53.4365 18.2659 53.4365 17.5991C53.4365 17.1577 53.2213 16.7598 52.3824 16.7598C52.1198 16.7598 51.9776 16.7504 51.6184 16.7617ZM49.875 22.9583V15.0416C50.2999 15.0416 52.2493 15.0416 52.4681 15.0416C54.5489 15.0416 55.2892 16.1157 55.2892 17.5763C55.2892 19.0464 54.4176 19.6469 54.0036 19.8629L56.2083 22.9583H54.0948L52.2603 20.2133H51.6184V22.9583H49.875Z" fill="#FF4438"/>
<path d="M47.5001 19.5522C47.5001 21.9732 46.0432 22.9583 44.4357 22.9583C42.507 22.9583 41.1667 21.7932 41.1667 19.4726V15.0416H42.882V19.0881C42.882 20.3213 43.2354 21.2609 44.4357 21.2609C45.4745 21.2609 45.785 20.4577 45.785 19.1903V15.0416H47.5001V19.5522Z" fill="#FF4438"/>
<path d="M37.2083 38H0V0H37.2083V13.0015H35.4834V1.7616H1.72309V36.2384H35.4834V24.9136H37.2083V38Z" fill="#FF4438"/>
<path d="M29.5459 22.9583L26.1003 18.2075V22.9583H24.5417V15.0416H25.871L29.3183 19.8132L29.3148 15.0416H30.8716L30.8751 22.9583H29.5459Z" fill="#FF4438"/>
<path d="M33.25 15.0416H38.7917V16.7378H36.7845V22.9583H35.2556V16.7378H33.25V15.0416Z" fill="#FF4438"/>
<path d="M7.91675 15.0416H9.60047V18.4907L12.0098 15.0416H14.0299L11.2631 18.6952L14.2501 22.9583H12.1155L9.60047 19.1912V22.9583H7.91675V15.0416Z" fill="#FF4438"/>
<path d="M18.6034 21.3187C19.8771 21.3187 20.5379 20.2905 20.5379 19C20.5379 17.6 19.6855 16.6812 18.6034 16.6812C17.4933 16.6812 16.6706 17.6 16.6706 19C16.6706 20.3112 17.5313 21.3187 18.6034 21.3187ZM18.6034 15.0416C20.6436 15.0416 22.1667 16.5604 22.1667 19C22.1667 21.3187 20.6436 22.9583 18.6034 22.9583C16.5649 22.9583 15.0417 21.4376 15.0417 19C15.0417 16.7793 16.4691 15.0416 18.6034 15.0416Z" fill="#FF4438"/>
</g>
<defs>
<clipPath id="clip0_385_113">
<rect width="57" height="38" fill="white"/>
</clipPath>
</defs>
</svg>
